<svg id="svg" version="1.1" xmlns="http://www.w3.org/2000/svg" xmlns:xlink="http://www.w3.org/1999/xlink" width="400"
    height="129.82681205901218" viewBox="0, 0, 400,129.82681205901218">
    <g id="svgg">
        <path id="path1"
            d="M346.083 10.237 C 342.693 12.271,342.941 19.520,346.440 20.674 C 349.626 21.726,352.309 16.804,350.905 12.482 C 350.172 10.227,347.879 9.159,346.083 10.237 M144.609 10.236 C 140.495 11.751,141.758 20.833,146.083 20.833 C 148.288 20.833,149.603 18.803,149.462 15.616 C 149.291 11.744,147.103 9.317,144.609 10.236 M153.104 10.601 C 152.610 11.327,152.717 11.465,153.792 11.488 C 154.194 11.497,154.332 11.575,154.329 11.792 C 154.326 11.952,154.182 13.958,154.008 16.249 C 153.834 18.540,153.708 20.430,153.728 20.450 C 153.748 20.470,154.098 20.508,154.507 20.535 L 155.250 20.583 155.360 19.250 C 155.683 15.347,156.021 10.299,155.963 10.241 C 155.927 10.205,155.367 10.126,154.720 10.065 L 153.542 9.956 153.104 10.601 M17.242 10.392 C 13.197 12.227,14.242 21.167,18.501 21.167 C 23.322 21.167,23.507 10.490,18.692 10.215 C 18.133 10.183,17.544 10.255,17.242 10.392 M60.701 10.512 C 57.733 12.020,57.476 18.591,60.306 20.576 C 63.514 22.827,66.852 18.401,65.608 13.545 C 64.912 10.827,62.732 9.479,60.701 10.512 M78.250 10.428 C 74.304 12.476,75.314 21.167,79.499 21.167 C 82.973 21.167,84.669 14.954,82.122 11.557 C 81.183 10.304,79.458 9.801,78.250 10.428 M218.479 10.501 C 215.210 12.228,215.371 19.516,218.709 20.910 C 221.187 21.945,223.393 19.814,223.620 16.167 C 223.878 12.011,221.202 9.062,218.479 10.501 M262.250 10.428 C 258.248 12.505,259.256 21.167,263.500 21.167 C 265.987 21.167,267.637 18.129,267.167 14.418 C 266.768 11.273,264.371 9.328,262.250 10.428 M279.554 10.511 C 275.765 12.387,276.698 20.796,280.732 21.130 C 283.184 21.334,284.583 19.349,284.583 15.667 C 284.583 11.441,282.334 9.135,279.554 10.511 M337.583 10.250 C 337.492 10.281,337.067 10.354,336.640 10.412 C 335.925 10.508,335.842 10.569,335.598 11.178 C 335.240 12.074,335.225 12.053,336.170 11.962 C 337.147 11.868,337.050 11.678,337.411 14.417 C 338.370 21.712,338.186 20.987,339.051 20.877 C 339.436 20.828,339.781 20.761,339.818 20.728 C 339.880 20.675,339.434 17.215,338.709 12.125 C 338.419 10.088,338.357 9.985,337.583 10.250 M7.781 11.042 L 7.362 11.750 8.264 11.800 L 9.167 11.850 9.167 16.425 L 9.167 21.000 10.000 21.000 L 10.833 21.000 10.833 15.667 L 10.833 10.333 9.517 10.333 L 8.201 10.333 7.781 11.042 M25.252 10.997 C 24.713 11.851,24.691 11.808,25.708 11.866 L 26.583 11.917 26.628 16.458 L 26.672 21.000 27.503 21.000 L 28.333 21.000 28.333 15.667 L 28.333 10.333 27.002 10.333 L 25.671 10.333 25.252 10.997 M33.948 11.042 L 33.529 11.750 34.431 11.800 L 35.333 11.850 35.333 16.425 L 35.333 21.000 36.167 21.000 L 37.000 21.000 37.000 15.667 L 37.000 10.333 35.684 10.333 L 34.367 10.333 33.948 11.042 M42.708 10.988 C 42.217 11.855,42.205 11.833,43.167 11.833 L 44.000 11.833 44.000 16.417 L 44.000 21.000 44.919 21.000 L 45.838 21.000 45.794 15.708 L 45.750 10.417 44.417 10.371 L 43.083 10.326 42.708 10.988 M51.419 10.997 C 50.880 11.851,50.857 11.808,51.875 11.866 L 52.750 11.917 52.794 16.458 L 52.839 21.000 53.669 21.000 L 54.500 21.000 54.500 15.667 L 54.500 10.333 53.169 10.333 L 51.838 10.333 51.419 10.997 M68.875 10.988 C 68.387 11.848,68.364 11.808,69.375 11.866 L 70.250 11.917 70.294 16.458 L 70.339 21.000 71.172 21.000 L 72.005 21.000 71.961 15.708 L 71.917 10.417 70.583 10.371 L 69.250 10.326 68.875 10.988 M86.295 11.083 L 85.842 11.833 86.754 11.833 L 87.667 11.833 87.667 16.417 L 87.667 21.000 88.500 21.000 L 89.333 21.000 89.333 15.667 L 89.333 10.333 88.040 10.333 L 86.748 10.333 86.295 11.083 M209.244 10.958 C 209.069 11.302,208.900 11.635,208.868 11.699 C 208.837 11.763,209.210 11.838,209.697 11.866 L 210.583 11.917 210.628 16.458 L 210.672 21.000 211.503 21.000 L 212.333 21.000 212.333 15.667 L 212.333 10.333 210.948 10.333 L 209.562 10.333 209.244 10.958 M226.697 10.981 C 226.214 11.841,226.209 11.833,227.167 11.833 L 228.000 11.833 228.000 16.417 L 228.000 21.000 228.833 21.000 L 229.667 21.000 229.667 15.667 L 229.667 10.333 228.364 10.333 L 227.061 10.333 226.697 10.981 M235.419 10.997 C 234.880 11.851,234.857 11.808,235.875 11.866 L 236.750 11.917 236.794 16.458 L 236.839 21.000 237.669 21.000 L 238.500 21.000 238.500 15.667 L 238.500 10.333 237.169 10.333 L 235.838 10.333 235.419 10.997 M244.095 11.042 L 243.671 11.750 244.544 11.833 L 245.417 11.917 245.461 16.458 L 245.505 21.000 246.336 21.000 L 247.167 21.000 247.167 15.667 L 247.167 10.333 245.843 10.333 L 244.519 10.333 244.095 11.042 M252.864 10.981 C 252.381 11.841,252.376 11.833,253.333 11.833 L 254.167 11.833 254.167 16.417 L 254.167 21.000 255.000 21.000 L 255.833 21.000 255.833 15.667 L 255.833 10.333 254.531 10.333 L 253.228 10.333 252.864 10.981 M270.262 11.042 L 269.838 11.750 270.711 11.833 L 271.583 11.917 271.628 16.458 L 271.672 21.000 272.503 21.000 L 273.333 21.000 273.333 15.667 L 273.333 10.333 272.009 10.333 L 270.686 10.333 270.262 11.042 M287.752 10.997 C 287.213 11.851,287.191 11.808,288.208 11.866 L 289.083 11.917 289.128 16.458 L 289.172 21.000 290.003 21.000 L 290.833 21.000 290.833 15.667 L 290.833 10.333 289.502 10.333 L 288.171 10.333 287.752 10.997 M348.246 11.404 C 350.615 12.394,349.791 19.333,347.304 19.333 C 344.861 19.333,344.603 12.656,347.000 11.459 C 347.698 11.110,347.556 11.116,348.246 11.404 M355.839 11.911 C 355.432 12.331,355.343 12.510,355.514 12.565 C 355.644 12.607,356.031 12.728,356.375 12.834 C 357.104 13.058,357.091 12.995,356.681 14.357 C 356.017 16.565,354.667 21.496,354.667 21.715 C 354.667 21.849,354.970 22.013,355.396 22.111 L 356.126 22.278 357.503 17.347 C 358.261 14.635,358.913 12.328,358.954 12.219 C 359.017 12.050,357.079 11.333,356.556 11.333 C 356.470 11.333,356.147 11.593,355.839 11.911 M146.731 12.098 C 148.181 13.590,148.449 17.453,147.200 18.850 C 146.086 20.096,144.523 19.120,143.904 16.792 C 142.953 13.222,144.817 10.127,146.731 12.098 M163.030 11.744 C 159.192 13.475,158.282 20.478,161.709 21.910 C 164.413 23.040,167.333 19.759,167.333 15.592 C 167.333 12.746,165.146 10.790,163.030 11.744 M19.135 11.900 C 21.044 12.887,21.067 18.268,19.167 19.390 C 17.636 20.294,16.443 18.673,16.426 15.667 C 16.410 12.717,17.577 11.095,19.135 11.900 M63.054 12.163 C 65.007 13.878,64.251 19.667,62.074 19.667 C 59.828 19.667,59.194 13.647,61.268 12.016 C 61.878 11.536,62.388 11.578,63.054 12.163 M80.475 12.088 C 82.055 13.417,81.990 18.066,80.374 19.337 C 78.732 20.629,76.956 17.639,77.502 14.503 C 77.917 12.117,79.236 11.045,80.475 12.088 M220.917 12.217 C 222.776 14.076,222.043 19.667,219.939 19.667 C 219.381 19.667,218.403 18.800,218.172 18.100 C 216.930 14.337,218.873 10.173,220.917 12.217 M264.515 12.097 C 265.624 13.101,265.960 16.412,265.134 18.196 C 263.794 21.091,261.447 19.487,261.428 15.664 C 261.413 12.662,263.050 10.771,264.515 12.097 M281.658 11.912 C 282.621 12.410,283.277 14.707,283.005 16.629 C 282.371 21.116,278.833 20.300,278.833 15.667 C 278.833 12.892,280.155 11.135,281.658 11.912 M135.293 12.202 C 134.156 12.553,133.839 12.935,133.834 13.958 C 133.833 14.210,133.752 14.213,134.700 13.925 L 135.483 13.688 135.760 14.636 C 135.913 15.157,136.468 17.066,136.995 18.878 C 137.521 20.691,137.992 22.215,138.043 22.265 C 138.250 22.472,139.523 21.941,139.449 21.678 C 138.068 16.802,136.585 11.836,136.512 11.844 C 136.460 11.850,135.911 12.011,135.293 12.202 M327.456 12.549 C 324.798 13.400,324.375 17.776,326.637 21.025 C 329.437 25.046,334.110 22.822,333.115 17.942 C 332.357 14.224,329.809 11.796,327.456 12.549 M165.225 13.501 C 166.802 15.374,164.987 20.667,162.768 20.667 C 161.552 20.667,161.047 19.648,161.209 17.527 C 161.461 14.239,163.840 11.854,165.225 13.501 M329.495 14.330 C 331.069 15.451,332.170 19.139,331.409 20.743 C 330.230 23.228,327.003 20.359,326.729 16.583 C 326.562 14.279,327.897 13.192,329.495 14.330 M172.037 15.142 L 171.354 15.595 172.093 15.987 C 173.029 16.483,173.156 16.026,170.824 20.568 L 168.814 24.483 169.506 24.837 C 169.887 25.031,170.220 25.166,170.247 25.137 C 170.273 25.107,171.358 23.005,172.657 20.465 L 175.020 15.847 173.870 15.269 L 172.721 14.690 172.037 15.142 M365.695 15.271 C 364.844 15.779,364.844 15.748,365.708 16.184 C 366.098 16.380,366.442 16.564,366.474 16.592 C 366.506 16.620,365.606 18.423,364.474 20.600 C 363.342 22.776,362.393 24.615,362.364 24.686 C 362.313 24.812,363.656 25.576,363.743 25.470 C 363.789 25.414,364.830 23.424,367.236 18.798 L 368.684 16.013 367.537 15.435 L 366.389 14.857 365.695 15.271 M126.335 15.530 C 124.255 16.604,123.934 19.343,125.535 22.366 C 127.362 25.819,130.979 26.601,132.375 23.845 C 134.294 20.056,129.732 13.776,126.335 15.530 M128.479 16.906 C 130.240 17.817,131.904 21.730,131.134 23.151 C 130.426 24.456,129.251 24.409,127.955 23.024 C 125.211 20.090,125.610 15.422,128.479 16.906 M317.625 17.435 C 316.668 18.026,316.667 18.028,316.667 18.847 C 316.667 19.802,316.644 19.792,317.578 19.244 L 318.299 18.822 320.680 22.738 L 323.062 26.653 323.698 26.296 C 324.047 26.099,324.333 25.871,324.333 25.789 C 324.333 25.488,318.959 16.833,318.774 16.838 C 318.669 16.840,318.152 17.109,317.625 17.435 M117.877 20.629 C 117.013 21.244,117.005 21.259,117.002 22.135 C 117.000 23.099,116.993 23.097,117.969 22.375 C 118.273 22.150,118.543 21.993,118.569 22.025 C 118.595 22.057,119.684 23.621,120.990 25.500 C 123.942 29.751,123.619 29.426,124.383 28.908 L 125.006 28.484 124.275 27.450 C 123.873 26.882,122.553 24.992,121.342 23.250 C 118.844 19.658,119.038 19.804,117.877 20.629 M178.917 20.562 C 176.558 21.673,174.462 24.889,174.736 26.976 C 175.309 31.335,180.787 30.435,183.225 25.581 C 184.995 22.057,182.331 18.954,178.917 20.562 M373.655 20.562 C 370.288 21.468,367.515 26.083,368.812 28.625 C 370.402 31.741,374.985 30.333,377.085 26.083 C 378.678 22.859,376.735 19.732,373.655 20.562 M181.958 22.092 C 183.785 24.169,178.541 29.913,176.654 27.903 C 175.746 26.936,176.401 24.807,178.155 23.025 C 179.648 21.509,181.126 21.147,181.958 22.092 M375.810 22.464 C 377.263 24.055,374.004 28.833,371.466 28.833 C 368.482 28.833,370.524 23.278,373.950 22.078 C 374.748 21.798,375.308 21.914,375.810 22.464 M310.391 22.832 C 307.965 24.071,308.232 27.479,310.965 30.149 C 316.062 35.132,321.002 30.067,316.178 24.803 C 314.354 22.813,312.000 22.011,310.391 22.832 M313.812 24.785 C 316.107 26.366,317.356 29.159,316.258 30.258 C 314.742 31.773,310.631 28.717,310.228 25.776 C 309.980 23.970,311.870 23.448,313.812 24.785 M110.372 26.878 C 109.508 27.752,109.506 27.757,109.687 28.419 C 109.930 29.310,109.921 29.308,110.603 28.655 L 111.200 28.083 114.352 31.321 L 117.504 34.558 118.002 34.081 C 118.276 33.819,118.500 33.537,118.500 33.455 C 118.500 33.290,111.495 26.000,111.337 26.000 C 111.283 26.000,110.849 26.395,110.372 26.878 M187.792 26.955 C 187.057 27.032,187.020 27.194,187.583 27.864 C 188.168 28.558,188.340 28.360,184.583 31.321 C 180.854 34.261,181.012 34.084,181.531 34.769 C 181.731 35.034,181.914 35.277,181.938 35.310 C 181.995 35.390,190.167 28.972,190.165 28.848 C 190.163 28.676,188.644 26.832,188.528 26.861 C 188.467 26.877,188.135 26.919,187.792 26.955 M51.917 29.480 C 48.136 31.835,49.240 40.167,53.333 40.167 C 56.753 40.167,58.457 34.107,56.028 30.585 C 55.115 29.261,53.126 28.726,51.917 29.480 M253.301 29.507 C 249.283 31.629,250.900 40.693,255.193 40.118 C 259.074 39.597,259.787 31.185,256.099 29.435 C 255.335 29.073,254.061 29.105,253.301 29.507 M42.697 29.981 C 42.214 30.841,42.210 30.833,43.164 30.833 L 43.995 30.833 44.039 35.375 L 44.083 39.917 44.958 39.967 L 45.833 40.017 45.833 34.675 L 45.833 29.333 44.447 29.333 L 43.061 29.333 42.697 29.981 M244.096 30.042 L 243.672 30.750 244.586 30.800 L 245.500 30.850 245.500 35.425 L 245.500 40.000 246.333 40.000 L 247.167 40.000 247.167 34.667 L 247.167 29.333 245.843 29.333 L 244.519 29.333 244.096 30.042 M302.848 31.332 C 302.088 32.415,302.046 32.664,302.485 33.488 L 302.789 34.059 303.250 33.363 C 303.850 32.457,303.486 32.299,307.591 35.250 C 311.688 38.194,311.298 38.012,311.812 37.219 C 312.196 36.628,312.198 36.602,311.895 36.373 C 311.724 36.244,309.771 34.838,307.556 33.249 L 303.529 30.361 302.848 31.332 M54.309 31.088 C 55.908 32.434,55.786 37.467,54.132 38.352 C 52.380 39.289,50.802 36.564,51.332 33.519 C 51.764 31.040,53.026 30.009,54.309 31.088 M255.767 31.085 C 257.674 32.992,257.006 38.475,254.859 38.536 C 253.647 38.570,252.827 37.251,252.704 35.068 C 252.526 31.909,254.293 29.611,255.767 31.085 M104.114 34.013 L 103.361 35.025 103.655 35.681 C 104.068 36.605,104.090 36.609,104.593 35.849 C 105.156 34.997,104.617 34.741,108.779 37.843 C 110.753 39.316,112.383 40.497,112.401 40.468 C 112.419 40.440,112.638 40.165,112.888 39.857 L 113.342 39.298 109.143 36.149 C 106.833 34.417,104.926 33.000,104.905 33.000 C 104.884 33.000,104.527 33.456,104.114 34.013 M190.536 35.167 C 187.272 35.857,184.603 38.871,185.324 41.056 C 186.128 43.492,189.268 44.003,192.477 42.219 C 197.406 39.479,195.907 34.033,190.536 35.167 M193.076 36.736 C 195.487 37.744,193.285 40.853,189.570 41.684 C 187.938 42.050,186.666 41.443,186.667 40.299 C 186.670 38.220,190.942 35.844,193.076 36.736 M298.988 38.792 C 296.204 40.202,297.054 43.917,300.556 45.641 C 304.417 47.542,307.833 46.539,307.833 43.505 C 307.833 40.107,302.257 37.136,298.988 38.792 M303.167 40.313 C 305.236 41.107,306.720 42.820,306.323 43.957 C 305.426 46.532,298.833 44.182,298.833 41.287 C 298.833 39.888,300.867 39.430,303.167 40.313 M100.549 40.608 C 97.733 41.605,98.041 45.194,101.119 47.256 C 104.753 49.690,108.839 48.830,108.832 45.632 C 108.825 42.497,103.807 39.454,100.549 40.608 M104.351 42.457 C 108.614 44.394,108.223 48.205,103.893 46.919 C 102.622 46.541,101.075 45.464,100.498 44.553 C 99.042 42.258,101.259 41.052,104.351 42.457 M196.554 44.814 C 196.607 45.078,196.695 45.472,196.749 45.689 C 196.846 46.077,196.785 46.098,192.799 47.055 C 190.572 47.589,188.610 48.066,188.439 48.114 C 188.109 48.207,188.136 49.203,188.479 49.546 C 188.603 49.670,198.373 47.458,198.632 47.247 C 198.659 47.225,198.544 46.662,198.376 45.995 L 198.071 44.783 197.327 44.561 C 196.918 44.438,196.555 44.337,196.521 44.336 C 196.486 44.334,196.502 44.550,196.554 44.814 M42.708 48.654 C 42.217 49.522,42.205 49.500,43.167 49.500 L 44.000 49.500 44.000 54.083 L 44.000 58.667 44.919 58.667 L 45.838 58.667 45.794 53.375 L 45.750 48.083 44.417 48.038 L 43.083 47.993 42.708 48.654 M51.429 48.708 L 51.005 49.417 51.877 49.500 L 52.750 49.583 52.794 54.125 L 52.839 58.667 53.669 58.667 L 54.500 58.667 54.500 53.333 L 54.500 48.000 53.176 48.000 L 51.852 48.000 51.429 48.708 M244.095 48.708 L 243.671 49.417 244.544 49.500 L 245.417 49.583 245.461 54.125 L 245.505 58.667 246.336 58.667 L 247.167 58.667 247.167 53.333 L 247.167 48.000 245.843 48.000 L 244.519 48.000 244.095 48.708 M252.864 48.648 C 252.381 49.508,252.376 49.500,253.333 49.500 L 254.167 49.500 254.167 54.083 L 254.167 58.667 255.000 58.667 L 255.833 58.667 255.833 53.333 L 255.833 48.000 254.531 48.000 L 253.228 48.000 252.864 48.648 M294.605 49.131 C 294.560 49.288,294.431 49.850,294.318 50.380 L 294.111 51.344 294.665 51.915 C 295.329 52.600,295.428 52.564,295.574 51.585 C 295.713 50.658,295.278 50.635,300.420 51.837 C 302.782 52.389,304.745 52.811,304.782 52.774 C 304.819 52.736,304.865 52.383,304.883 51.988 L 304.917 51.271 300.250 50.149 C 294.256 48.708,294.702 48.788,294.605 49.131 M95.574 50.389 C 95.535 50.496,95.355 51.021,95.172 51.556 L 94.841 52.529 95.361 53.176 C 95.949 53.908,96.085 53.900,96.234 53.127 C 96.438 52.067,96.289 52.055,100.828 53.495 C 103.148 54.231,105.067 54.833,105.091 54.833 C 105.115 54.833,105.250 54.497,105.390 54.086 L 105.644 53.340 104.864 53.105 C 104.153 52.891,100.219 51.651,96.948 50.610 C 96.029 50.317,95.624 50.252,95.574 50.389 M198.203 54.655 L 198.282 55.476 197.099 55.567 C 196.449 55.618,194.417 55.705,192.583 55.762 C 188.705 55.883,189.139 55.755,189.274 56.735 L 189.382 57.525 190.149 57.435 C 190.571 57.386,192.529 57.303,194.500 57.250 C 196.471 57.198,198.477 57.111,198.958 57.058 L 199.833 56.962 199.831 56.356 C 199.827 54.942,199.657 54.502,198.983 54.158 C 198.119 53.717,198.113 53.721,198.203 54.655 M296.000 56.813 C 290.259 58.699,292.997 64.695,299.331 64.106 C 304.268 63.647,305.568 59.157,301.333 57.192 C 300.358 56.739,296.960 56.497,296.000 56.813 M96.450 57.667 C 94.396 58.030,93.007 59.374,93.007 61.000 C 93.007 65.641,103.172 66.594,103.786 62.011 C 104.147 59.320,100.229 56.999,96.450 57.667 M299.954 58.402 C 301.631 58.849,302.333 59.489,302.333 60.572 C 302.333 62.676,296.911 63.309,294.927 61.437 C 292.881 59.508,296.317 57.434,299.954 58.402 M99.866 59.439 C 101.982 60.033,102.941 61.585,101.860 62.666 C 100.072 64.454,94.500 63.198,94.500 61.007 C 94.500 59.449,97.146 58.676,99.866 59.439 M191.500 61.601 C 187.696 62.618,187.762 66.889,191.604 68.327 C 196.143 70.025,200.436 67.785,199.157 64.386 C 198.357 62.260,194.406 60.823,191.500 61.601 M195.559 63.338 C 199.112 64.435,198.582 67.333,194.828 67.333 C 190.937 67.333,188.508 64.712,191.160 63.375 C 192.148 62.877,194.015 62.861,195.559 63.338 M396.390 64.583 C 396.391 65.317,396.420 65.596,396.456 65.204 C 396.491 64.812,396.490 64.212,396.454 63.871 C 396.419 63.529,396.390 63.850,396.390 64.583 M366.714 65.083 C 366.716 65.542,366.748 65.709,366.786 65.456 C 366.825 65.203,366.824 64.828,366.784 64.623 C 366.744 64.418,366.713 64.625,366.714 65.083 M385.714 65.083 C 385.716 65.542,385.748 65.709,385.786 65.456 C 385.825 65.203,385.824 64.828,385.784 64.623 C 385.744 64.418,385.713 64.625,385.714 65.083 M42.756 67.323 C 42.176 68.243,42.212 68.333,43.167 68.333 L 44.000 68.333 44.000 72.833 L 44.000 77.333 44.919 77.333 L 45.838 77.333 45.794 72.042 L 45.750 66.750 44.465 66.701 L 43.180 66.653 42.756 67.323 M51.433 67.405 C 50.870 68.364,50.854 68.333,51.917 68.333 L 52.833 68.333 52.833 72.833 L 52.833 77.333 53.667 77.333 L 54.500 77.333 54.500 72.000 L 54.500 66.667 53.183 66.667 L 51.865 66.667 51.433 67.405 M244.099 67.405 C 243.537 68.364,243.521 68.333,244.583 68.333 L 245.500 68.333 245.500 72.833 L 245.500 77.333 246.333 77.333 L 247.167 77.333 247.167 72.000 L 247.167 66.667 245.849 66.667 L 244.532 66.667 244.099 67.405 M252.875 67.326 C 252.349 68.248,252.388 68.333,253.333 68.333 L 254.167 68.333 254.167 72.833 L 254.167 77.333 255.000 77.333 L 255.833 77.333 255.833 72.000 L 255.833 66.667 254.542 66.668 L 253.250 66.669 252.875 67.326 M298.347 68.435 C 292.598 69.294,293.312 68.990,293.543 70.482 L 293.732 71.707 294.463 72.020 C 294.865 72.192,295.226 72.333,295.265 72.333 C 295.304 72.333,295.289 71.932,295.231 71.442 L 295.127 70.550 295.695 70.458 C 296.008 70.407,297.985 70.124,300.090 69.828 C 304.411 69.221,304.217 69.292,304.068 68.360 C 303.934 67.519,304.537 67.511,298.347 68.435 M96.708 69.306 L 92.833 69.561 92.836 70.489 C 92.839 71.831,92.958 72.111,93.689 72.492 C 94.556 72.944,94.532 72.960,94.470 71.958 L 94.417 71.083 97.500 70.878 C 99.196 70.765,101.202 70.627,101.958 70.571 L 103.333 70.470 103.333 69.735 L 103.333 69.000 101.958 69.026 C 101.202 69.040,98.840 69.166,96.708 69.306 M186.848 72.183 C 186.736 72.558,186.679 72.902,186.723 72.945 C 186.796 73.018,194.964 75.846,196.042 76.172 C 196.566 76.330,196.623 76.260,197.073 74.879 L 197.357 74.009 196.909 73.421 C 196.345 72.682,196.240 72.686,195.993 73.458 C 195.883 73.802,195.740 74.141,195.676 74.212 C 195.611 74.283,193.676 73.702,191.374 72.921 C 189.073 72.139,187.159 71.500,187.121 71.500 C 187.084 71.500,186.961 71.807,186.848 72.183 M384.935 71.809 C 384.569 72.432,384.668 73.307,385.113 73.395 C 386.780 73.727,393.867 75.200,394.411 75.328 C 395.206 75.514,395.081 75.661,395.380 74.193 L 395.629 72.970 395.023 72.414 C 394.362 71.809,394.281 71.849,394.097 72.875 C 394.035 73.219,393.895 73.500,393.784 73.500 C 393.599 73.500,387.323 72.227,385.707 71.862 C 385.317 71.774,384.970 71.750,384.935 71.809 M164.000 73.083 C 164.591 73.679,165.111 74.167,165.157 74.167 C 165.203 74.167,164.757 73.679,164.167 73.083 C 163.576 72.487,163.055 72.000,163.010 72.000 C 162.964 72.000,163.409 72.487,164.000 73.083 M163.417 74.833 C 164.053 75.475,164.612 76.000,164.658 76.000 C 164.704 76.000,164.220 75.475,163.583 74.833 C 162.947 74.192,162.388 73.667,162.342 73.667 C 162.296 73.667,162.780 74.192,163.417 74.833 M300.083 74.886 C 296.120 76.212,294.436 79.242,296.469 81.390 C 298.546 83.585,304.128 82.423,305.840 79.438 C 307.711 76.177,304.296 73.476,300.083 74.886 M98.333 75.481 C 92.544 77.353,92.912 83.115,98.801 82.794 C 102.600 82.587,105.264 80.266,104.764 77.599 C 104.388 75.594,101.216 74.549,98.333 75.481 M304.134 76.400 C 306.523 77.635,303.108 80.989,299.453 80.998 C 297.917 81.002,297.167 80.432,297.167 79.261 C 297.167 77.235,301.950 75.270,304.134 76.400 M102.349 76.942 C 103.258 77.306,103.620 78.062,103.274 78.875 C 102.415 80.891,97.795 82.094,96.167 80.725 C 93.953 78.862,99.170 75.670,102.349 76.942 M185.172 77.842 C 180.792 79.694,184.385 85.898,189.845 85.912 C 196.159 85.929,193.391 77.957,187.000 77.721 C 186.221 77.692,185.398 77.747,185.172 77.842 M384.888 78.171 C 380.848 78.990,381.138 83.381,385.369 85.464 C 389.040 87.271,392.651 86.133,392.661 83.167 C 392.671 80.457,388.099 77.519,384.888 78.171 M188.504 79.553 C 191.310 80.708,192.723 82.803,191.513 84.013 C 189.916 85.609,184.647 82.975,184.672 80.592 C 184.686 79.219,186.497 78.728,188.504 79.553 M388.047 80.160 C 390.539 81.112,391.884 83.131,390.769 84.247 C 389.901 85.115,387.990 84.995,385.946 83.944 C 381.630 81.725,383.470 78.411,388.047 80.160 M159.583 81.000 C 160.220 81.642,160.779 82.167,160.824 82.167 C 160.870 82.167,160.387 81.642,159.750 81.000 C 159.113 80.358,158.555 79.833,158.509 79.833 C 158.463 79.833,158.947 80.358,159.583 81.000 M159.250 83.000 C 159.794 83.550,160.277 84.000,160.323 84.000 C 160.369 84.000,159.961 83.550,159.417 83.000 C 158.872 82.450,158.390 82.000,158.344 82.000 C 158.298 82.000,158.706 82.450,159.250 83.000 M162.573 83.208 L 162.083 83.750 162.625 83.260 C 162.923 82.991,163.167 82.748,163.167 82.719 C 163.167 82.590,163.029 82.703,162.573 83.208 M307.250 84.394 C 306.425 84.880,304.419 86.046,302.792 86.985 C 301.165 87.925,299.833 88.736,299.833 88.789 C 299.833 88.842,300.100 89.361,300.425 89.942 L 301.016 91.000 301.841 91.000 C 302.295 91.000,302.667 90.972,302.667 90.938 C 302.667 90.903,302.477 90.537,302.246 90.123 L 301.826 89.370 305.809 87.090 L 309.793 84.810 309.438 84.156 C 308.995 83.340,309.052 83.334,307.250 84.394 M163.344 84.571 L 162.771 85.250 163.419 84.631 C 163.775 84.290,164.033 83.984,163.992 83.951 C 163.950 83.918,163.659 84.197,163.344 84.571 M102.250 86.503 C 99.386 87.981,97.765 88.907,97.793 89.051 C 97.816 89.176,98.065 89.702,98.347 90.222 L 98.858 91.167 99.683 91.167 L 100.507 91.167 100.170 90.507 C 99.985 90.144,99.833 89.775,99.833 89.688 C 99.833 89.600,101.540 88.652,103.625 87.580 C 108.087 85.288,107.757 85.533,107.395 84.774 C 107.015 83.978,107.383 83.854,102.250 86.503 M174.830 85.087 L 174.261 85.674 175.420 86.795 L 176.580 87.917 175.502 86.791 L 174.425 85.665 174.960 85.130 L 175.495 84.594 176.206 85.256 L 176.917 85.917 176.258 85.208 C 175.465 84.356,175.533 84.361,174.830 85.087 M52.083 85.777 C 48.114 87.869,49.119 96.500,53.332 96.500 C 56.925 96.500,58.562 89.889,55.758 86.704 C 54.723 85.528,53.257 85.158,52.083 85.777 M253.388 85.845 C 249.475 87.782,250.638 96.500,254.809 96.500 C 259.111 96.500,260.010 87.455,255.880 85.725 C 255.112 85.403,254.190 85.447,253.388 85.845 M42.708 86.321 C 42.217 87.189,42.205 87.167,43.167 87.167 L 44.000 87.167 44.000 91.750 L 44.000 96.333 44.919 96.333 L 45.838 96.333 45.794 91.042 L 45.750 85.750 44.417 85.705 L 43.083 85.660 42.708 86.321 M244.095 86.375 L 243.671 87.083 244.544 87.167 L 245.417 87.250 245.461 91.792 L 245.505 96.333 246.336 96.333 L 247.167 96.333 247.167 91.000 L 247.167 85.667 245.843 85.667 L 244.519 85.667 244.095 86.375 M54.207 87.330 C 55.875 88.642,55.875 93.358,54.207 94.670 C 52.998 95.622,51.699 94.433,51.327 92.032 C 50.835 88.859,52.563 86.036,54.207 87.330 M255.519 87.288 C 257.273 88.324,257.377 93.119,255.677 94.549 C 254.213 95.781,252.667 93.958,252.667 91.000 C 252.667 88.192,254.035 86.411,255.519 87.288 M378.273 87.662 L 377.838 88.319 380.711 90.272 C 382.291 91.346,384.283 92.705,385.139 93.293 C 385.994 93.880,386.714 94.336,386.738 94.306 C 386.762 94.275,387.088 93.793,387.462 93.235 L 388.143 92.220 387.768 91.403 L 387.393 90.587 387.082 91.085 C 386.353 92.253,386.457 92.252,384.775 91.103 C 381.376 88.781,379.073 87.220,378.895 87.116 C 378.787 87.052,378.523 87.285,378.273 87.662 M181.167 90.417 C 181.478 90.737,181.770 91.000,181.815 91.000 C 181.861 91.000,181.644 90.737,181.333 90.417 C 181.022 90.096,180.730 89.833,180.685 89.833 C 180.639 89.833,180.856 90.096,181.167 90.417 M310.250 90.055 C 305.839 91.790,303.817 96.570,306.646 98.576 C 310.109 101.030,316.929 94.681,314.604 91.168 C 313.809 89.967,311.788 89.451,310.250 90.055 M108.000 90.656 C 105.569 91.398,103.000 94.331,103.000 96.365 C 103.000 100.097,107.367 100.595,110.759 97.250 C 114.252 93.805,112.376 89.320,108.000 90.656 M313.175 91.759 C 315.131 93.841,309.256 99.164,307.234 97.143 C 306.131 96.041,307.176 93.813,309.558 92.188 C 310.982 91.217,312.497 91.037,313.175 91.759 M180.660 92.208 C 181.350 92.944,181.500 93.077,181.500 92.951 C 181.500 92.925,181.144 92.568,180.708 92.160 L 179.917 91.417 180.660 92.208 M110.774 92.356 C 112.294 93.783,109.203 97.699,106.357 97.952 C 105.061 98.067,104.500 97.648,104.500 96.563 C 104.500 93.907,109.124 90.806,110.774 92.356 M171.417 92.833 C 171.868 93.292,172.275 93.667,172.321 93.667 C 172.367 93.667,172.035 93.292,171.583 92.833 C 171.132 92.375,170.725 92.000,170.679 92.000 C 170.633 92.000,170.965 92.375,171.417 92.833 M374.000 93.010 C 370.906 94.316,371.850 99.017,375.706 101.512 C 378.909 103.584,382.212 101.821,381.526 98.405 C 380.860 95.089,376.492 91.958,374.000 93.010 M170.833 94.583 C 171.331 95.087,171.776 95.500,171.822 95.500 C 171.868 95.500,171.498 95.087,171.000 94.583 C 170.502 94.079,170.057 93.667,170.011 93.667 C 169.966 93.667,170.335 94.079,170.833 94.583 M376.583 94.726 C 378.819 95.770,380.775 98.963,379.951 100.221 C 379.271 101.260,377.854 101.146,376.190 99.920 C 372.573 97.254,372.894 93.002,376.583 94.726 M316.238 100.037 C 314.503 102.252,313.029 104.153,312.962 104.261 C 312.887 104.383,313.217 104.752,313.839 105.241 L 314.838 106.026 315.586 105.740 C 316.500 105.391,316.505 105.331,315.665 104.749 L 314.997 104.286 315.443 103.685 C 315.689 103.354,316.278 102.596,316.753 102.000 C 317.227 101.404,318.297 100.044,319.130 98.976 L 320.643 97.036 320.280 96.719 C 319.368 95.921,319.632 95.705,316.238 100.037 M115.879 97.542 C 114.940 98.740,111.441 103.297,110.787 104.174 L 110.346 104.764 111.244 105.466 C 112.242 106.245,112.407 106.281,113.297 105.906 L 113.917 105.645 113.500 105.334 C 112.357 104.482,112.181 104.925,115.222 100.989 L 117.981 97.417 117.449 96.963 C 116.752 96.368,116.818 96.344,115.879 97.542 M176.330 98.420 C 175.861 98.898,175.498 99.138,175.337 99.077 C 175.132 98.999,175.124 99.021,175.295 99.193 C 175.466 99.366,175.671 99.241,176.376 98.537 C 176.855 98.058,177.206 97.667,177.158 97.667 C 177.109 97.667,176.737 98.006,176.330 98.420 M366.452 99.092 C 366.112 99.323,365.833 99.549,365.833 99.595 C 365.833 99.708,371.163 108.032,371.397 108.284 C 371.540 108.439,371.824 108.332,372.625 107.822 L 373.667 107.159 373.667 106.329 C 373.667 105.375,373.624 105.355,372.798 105.917 C 372.460 106.146,372.152 106.333,372.112 106.333 C 372.072 106.333,370.968 104.665,369.658 102.625 C 368.348 100.585,367.230 98.861,367.174 98.794 C 367.117 98.726,366.793 98.860,366.452 99.092 M162.913 99.598 C 162.640 99.739,162.351 99.919,162.271 99.998 C 162.189 100.079,162.759 101.358,163.586 102.945 C 165.626 106.866,166.874 109.240,166.928 109.307 C 166.954 109.338,167.468 109.088,168.071 108.751 L 169.167 108.138 169.167 107.303 L 169.167 106.468 168.428 106.901 L 167.689 107.334 166.699 105.459 C 166.155 104.427,165.240 102.683,164.665 101.583 C 163.397 99.152,163.516 99.287,162.913 99.598 M324.826 100.658 C 321.675 101.614,319.370 107.108,321.053 109.651 C 323.207 112.905,327.989 110.012,328.877 104.917 C 329.365 102.112,327.274 99.914,324.826 100.658 M122.137 100.930 C 120.005 101.586,117.995 104.774,118.004 107.484 C 118.018 111.873,122.748 112.379,125.063 108.241 C 127.421 104.025,125.739 99.821,122.137 100.930 M326.867 102.508 C 328.508 104.149,325.896 109.500,323.454 109.500 C 321.019 109.500,321.914 104.210,324.641 102.480 C 325.631 101.853,326.219 101.860,326.867 102.508 M124.116 102.569 C 125.451 103.718,124.124 108.063,122.070 109.266 C 119.179 110.961,118.558 106.337,121.273 103.329 C 122.341 102.146,123.320 101.884,124.116 102.569 M155.250 102.647 C 153.834 103.297,153.255 104.560,153.373 106.738 C 153.632 111.491,157.518 114.594,160.045 112.066 C 163.235 108.876,159.152 100.855,155.250 102.647 M359.083 102.570 C 356.901 103.544,356.476 106.678,358.084 109.945 C 360.266 114.380,365.229 113.840,365.233 109.167 C 365.237 105.016,361.818 101.349,359.083 102.570 M193.833 103.417 C 194.331 103.921,194.776 104.333,194.822 104.333 C 194.868 104.333,194.498 103.921,194.000 103.417 C 193.502 102.912,193.057 102.500,193.011 102.500 C 192.966 102.500,193.335 102.912,193.833 103.417 M130.761 103.811 C 130.716 103.961,130.186 106.146,129.583 108.667 C 128.981 111.188,128.453 113.366,128.410 113.508 C 128.350 113.708,128.609 113.830,129.580 114.055 L 130.827 114.346 131.325 113.798 C 131.969 113.090,131.961 113.051,131.155 112.915 C 130.207 112.755,130.204 112.845,131.330 108.168 C 131.887 105.851,132.323 103.939,132.297 103.919 C 131.949 103.653,130.833 103.574,130.761 103.811 M333.780 103.785 C 333.735 103.858,333.125 106.092,332.424 108.750 C 331.724 111.409,331.122 113.670,331.086 113.777 C 331.047 113.894,331.493 114.100,332.219 114.299 L 333.417 114.627 334.052 114.022 L 334.686 113.417 333.885 113.190 C 333.444 113.065,333.061 112.942,333.034 112.918 C 332.995 112.883,334.902 105.516,335.262 104.311 C 335.319 104.119,335.207 104.006,334.880 103.928 C 334.625 103.867,334.292 103.781,334.139 103.735 C 333.986 103.690,333.825 103.713,333.780 103.785 M157.431 104.200 C 158.887 105.197,159.993 108.339,159.514 110.116 C 158.993 112.047,157.112 111.899,155.872 109.830 C 153.879 106.505,154.981 102.521,157.431 104.200 M361.155 104.077 C 363.093 105.080,364.438 109.801,363.153 111.089 C 361.603 112.642,358.932 109.860,358.704 106.455 C 358.559 104.294,359.608 103.277,361.155 104.077 M52.417 104.343 C 50.496 104.907,49.315 107.727,49.698 110.831 C 50.488 117.223,57.167 116.307,57.167 109.807 C 57.167 106.061,55.011 103.582,52.417 104.343 M193.250 105.167 C 193.794 105.717,194.277 106.167,194.323 106.167 C 194.369 106.167,193.961 105.717,193.417 105.167 C 192.872 104.617,192.390 104.167,192.344 104.167 C 192.298 104.167,192.706 104.617,193.250 105.167 M210.083 104.415 C 206.746 105.585,206.443 113.002,209.658 114.808 C 211.912 116.075,214.417 114.208,214.828 110.955 C 215.380 106.584,213.052 103.374,210.083 104.415 M227.407 104.481 C 223.642 106.191,224.163 114.684,228.060 115.123 C 230.772 115.429,232.250 113.533,232.250 109.750 C 232.250 105.609,230.092 103.261,227.407 104.481 M245.333 104.283 C 242.906 105.161,241.747 108.250,242.510 111.809 C 243.272 115.359,247.216 116.359,248.912 113.432 C 251.237 109.419,248.745 103.049,245.333 104.283 M262.440 104.411 C 258.921 105.665,258.807 113.479,262.286 114.941 C 264.979 116.073,267.202 113.688,267.203 109.667 C 267.205 105.787,265.098 103.463,262.440 104.411 M288.606 104.411 C 285.104 105.659,284.990 113.476,288.453 114.940 C 291.140 116.076,293.376 113.681,293.377 109.667 C 293.378 105.794,291.263 103.464,288.606 104.411 M42.756 104.990 C 42.176 105.910,42.212 106.000,43.167 106.000 L 44.000 106.000 44.000 110.500 L 44.000 115.000 44.919 115.000 L 45.838 115.000 45.794 109.708 L 45.750 104.417 44.465 104.368 L 43.180 104.320 42.756 104.990 M217.933 105.071 C 217.370 106.031,217.354 106.000,218.417 106.000 L 219.333 106.000 219.333 110.500 L 219.333 115.000 220.167 115.000 L 221.000 115.000 221.000 109.667 L 221.000 104.333 219.683 104.333 L 218.365 104.333 217.933 105.071 M235.713 104.535 C 235.514 104.785,235.000 105.774,235.000 105.908 C 235.000 105.959,235.412 106.000,235.917 106.000 L 236.833 106.000 236.833 110.500 L 236.833 115.000 237.669 115.000 L 238.505 115.000 238.461 109.708 L 238.417 104.417 237.151 104.368 C 236.268 104.335,235.833 104.385,235.713 104.535 M252.923 104.955 C 252.308 105.860,252.363 106.000,253.333 106.000 L 254.167 106.000 254.167 110.500 L 254.167 115.000 255.000 115.000 L 255.833 115.000 255.833 109.667 L 255.833 104.333 254.589 104.333 L 253.345 104.333 252.923 104.955 M270.266 105.071 C 269.703 106.031,269.687 106.000,270.750 106.000 L 271.667 106.000 271.667 110.500 L 271.667 115.000 272.500 115.000 L 273.333 115.000 273.333 109.667 L 273.333 104.333 272.016 104.333 L 270.698 104.333 270.266 105.071 M279.089 104.955 C 278.475 105.860,278.530 106.000,279.500 106.000 L 280.333 106.000 280.333 110.500 L 280.333 115.000 281.167 115.000 L 282.000 115.000 282.000 109.667 L 282.000 104.333 280.756 104.333 L 279.512 104.333 279.089 104.955 M146.899 104.602 C 146.798 104.644,146.742 104.844,146.774 105.047 C 146.807 105.251,147.094 107.329,147.414 109.667 C 147.733 112.004,148.037 114.165,148.090 114.469 L 148.186 115.022 149.135 114.905 C 150.496 114.737,150.654 114.649,151.012 113.848 L 151.334 113.128 150.440 113.240 L 149.546 113.352 149.444 112.717 C 149.274 111.656,148.333 104.829,148.333 104.659 C 148.333 104.501,147.249 104.458,146.899 104.602 M138.611 106.708 C 138.553 107.740,138.456 110.090,138.395 111.932 L 138.285 115.281 139.497 115.394 C 140.809 115.516,140.778 115.531,141.414 114.458 L 141.686 114.000 140.853 114.000 C 139.793 114.000,139.865 114.430,140.081 109.417 C 140.295 104.433,140.352 104.833,139.431 104.833 L 138.716 104.833 138.611 106.708 M350.458 104.948 C 350.256 105.001,350.192 105.135,350.251 105.387 C 350.298 105.587,350.678 107.924,351.096 110.581 C 351.986 116.235,351.692 115.574,353.207 115.329 L 354.442 115.130 354.722 114.372 C 355.063 113.454,355.099 113.493,354.097 113.681 C 353.102 113.867,353.248 114.078,352.936 112.000 C 352.791 111.037,352.484 109.055,352.253 107.594 C 352.022 106.134,351.833 104.915,351.833 104.886 C 351.833 104.811,350.806 104.857,350.458 104.948 M341.561 105.402 C 338.294 106.923,338.049 114.079,341.208 115.710 C 343.386 116.834,345.725 115.157,346.341 112.029 C 347.233 107.494,344.678 103.951,341.561 105.402 M181.917 106.000 C 182.275 106.367,182.605 106.667,182.651 106.667 C 182.697 106.667,182.441 106.367,182.083 106.000 C 181.725 105.633,181.395 105.333,181.349 105.333 C 181.303 105.333,181.559 105.633,181.917 106.000 M54.007 105.920 C 56.280 107.096,55.729 113.667,53.358 113.667 C 51.126 113.667,50.420 107.942,52.433 106.174 C 53.089 105.599,53.314 105.562,54.007 105.920 M211.857 105.957 C 214.120 107.294,213.512 113.667,211.122 113.667 C 209.378 113.667,208.390 109.507,209.564 107.107 C 210.217 105.773,210.935 105.413,211.857 105.957 M229.559 106.138 C 231.054 107.484,231.102 111.706,229.640 113.168 C 228.104 114.704,226.361 112.512,226.532 109.258 C 226.676 106.509,228.213 104.925,229.559 106.138 M246.764 105.982 C 249.031 107.364,248.380 113.667,245.971 113.667 C 243.550 113.667,243.211 106.795,245.583 105.824 C 246.078 105.622,246.201 105.638,246.764 105.982 M264.190 105.957 C 266.457 107.296,265.850 113.667,263.456 113.667 C 261.169 113.667,260.614 107.301,262.784 105.963 C 263.374 105.599,263.582 105.598,264.190 105.957 M290.328 105.914 C 292.547 107.061,292.021 113.667,289.711 113.667 C 287.338 113.667,286.714 107.342,288.951 105.963 C 289.526 105.608,289.723 105.601,290.328 105.914 M343.802 106.916 C 345.870 108.656,344.931 114.567,342.587 114.567 C 341.107 114.567,340.208 112.220,340.660 109.540 C 341.078 107.062,342.532 105.847,343.802 106.916 M187.750 109.667 C 188.294 110.217,188.777 110.667,188.823 110.667 C 188.869 110.667,188.461 110.217,187.917 109.667 C 187.372 109.117,186.890 108.667,186.844 108.667 C 186.798 108.667,187.206 109.117,187.750 109.667 M187.083 111.333 C 187.628 111.883,188.110 112.333,188.156 112.333 C 188.202 112.333,187.794 111.883,187.250 111.333 C 186.706 110.783,186.223 110.333,186.177 110.333 C 186.131 110.333,186.539 110.783,187.083 111.333 M189.324 112.292 L 188.750 112.917 189.375 112.342 C 189.719 112.026,190.000 111.745,190.000 111.717 C 190.000 111.590,189.859 111.710,189.324 112.292 "
            stroke="none" fill="#bf5700" fill-rule="evenodd"></path>
        <path id="path2"
            d="M357.167 63.331 L 357.167 64.161 352.625 64.206 L 348.083 64.250 348.033 65.042 L 347.982 65.833 353.324 65.833 L 358.667 65.833 358.665 64.542 L 358.664 63.250 358.007 62.875 C 357.146 62.383,357.167 62.372,357.167 63.331 M375.833 63.333 L 375.833 64.167 371.333 64.167 L 366.833 64.167 366.833 65.000 L 366.833 65.833 372.167 65.833 L 377.500 65.833 377.500 64.585 L 377.500 63.338 376.837 62.919 C 375.924 62.343,375.833 62.380,375.833 63.333 M394.833 63.333 L 394.833 64.167 390.333 64.167 L 385.833 64.167 385.833 65.000 L 385.833 65.833 391.083 65.833 L 396.333 65.833 396.333 64.503 L 396.333 63.173 395.673 62.837 C 394.804 62.393,394.833 62.376,394.833 63.333 M161.511 71.656 L 160.940 72.145 164.655 75.988 L 168.371 79.832 169.283 78.949 C 170.134 78.125,170.187 78.027,170.084 77.481 C 169.888 76.432,169.748 76.356,169.124 76.960 C 168.494 77.571,168.442 77.588,168.137 77.272 C 167.226 76.327,162.132 71.167,162.111 71.167 C 162.096 71.167,161.826 71.387,161.511 71.656 M155.215 77.708 L 154.699 78.250 158.403 82.035 L 162.107 85.820 162.992 84.925 C 163.835 84.072,163.870 84.000,163.756 83.391 C 163.577 82.438,163.516 82.417,162.838 83.079 L 162.215 83.687 159.074 80.427 C 155.518 76.735,155.892 76.999,155.215 77.708 M174.919 85.165 L 174.441 85.663 175.586 86.873 C 177.690 89.098,181.724 93.167,181.827 93.167 C 182.379 93.167,183.538 91.473,183.434 90.820 C 183.267 89.776,183.189 89.744,182.486 90.430 L 181.844 91.057 178.739 87.862 C 175.262 84.284,175.560 84.495,174.919 85.165 M168.589 91.160 L 168.117 91.654 171.751 95.416 C 173.750 97.484,175.441 99.156,175.509 99.130 C 175.578 99.104,176.016 98.724,176.484 98.284 L 177.334 97.486 177.147 96.743 C 176.924 95.855,176.917 95.854,176.204 96.542 L 175.643 97.083 172.484 93.875 C 168.963 90.300,169.233 90.488,168.589 91.160 M188.208 98.588 C 187.461 99.190,187.314 98.969,190.893 102.623 C 192.668 104.435,194.304 106.133,194.529 106.397 L 194.937 106.877 195.897 105.980 L 196.858 105.083 196.644 104.292 C 196.389 103.344,196.384 103.343,195.660 104.090 L 195.088 104.680 191.919 101.416 L 188.750 98.151 188.208 98.588 M181.882 104.685 L 181.347 105.230 182.120 106.073 C 182.545 106.537,184.198 108.247,185.793 109.874 L 188.693 112.831 189.602 112.040 C 190.450 111.303,190.504 111.211,190.413 110.667 C 190.203 109.407,190.196 109.404,189.478 110.105 L 188.823 110.744 185.620 107.442 L 182.417 104.139 181.882 104.685 "
            stroke="none" fill="#ffffff" fill-rule="evenodd"></path>
    </g>
</svg>